<?xml version="1.0" encoding="UTF-8" standalone="no"?>
<svg
   xmlns:dc="http://purl.org/dc/elements/1.1/"
   xmlns:cc="http://creativecommons.org/ns#"
   xmlns:rdf="http://www.w3.org/1999/02/22-rdf-syntax-ns#"
   xmlns:svg="http://www.w3.org/2000/svg"
   xmlns="http://www.w3.org/2000/svg"
   xmlns:xlink="http://www.w3.org/1999/xlink"
   xmlns:sodipodi="http://sodipodi.sourceforge.net/DTD/sodipodi-0.dtd"
   xmlns:inkscape="http://www.inkscape.org/namespaces/inkscape"
   id="83910068-75cf-4c80-8346-d10a076ef2cd"
   data-name="Layer 1"
   width="1064.62"
   height="798.95"
   viewBox="0 0 1064.62 798.95"
   version="1.1"
   sodipodi:docname="Clouds.svg"
   inkscape:version="0.92.5 (0.92.5+68)">
  <metadata
     id="metadata113">
    <rdf:RDF>
      <cc:Work
         rdf:about="">
        <dc:format>image/svg+xml</dc:format>
        <dc:type
           rdf:resource="http://purl.org/dc/dcmitype/StillImage" />
        <dc:title>fishing</dc:title>
      </cc:Work>
    </rdf:RDF>
  </metadata>
  <sodipodi:namedview
     pagecolor="#ffffff"
     bordercolor="#666666"
     borderopacity="1"
     objecttolerance="10"
     gridtolerance="10"
     guidetolerance="10"
     inkscape:pageopacity="0"
     inkscape:pageshadow="2"
     inkscape:window-width="3840"
     inkscape:window-height="2062"
     id="namedview111"
     showgrid="false"
     inkscape:zoom="2.2692283"
     inkscape:cx="413.10648"
     inkscape:cy="540.49211"
     inkscape:window-x="0"
     inkscape:window-y="0"
     inkscape:window-maximized="1"
     inkscape:current-layer="83910068-75cf-4c80-8346-d10a076ef2cd" />
  <defs
     id="defs10">
    <linearGradient
       id="9ef7ef10-53c7-4b47-a18d-df8c769a82a9"
       x1="552.67"
       y1="633.88"
       x2="552.67"
       y2="359.93"
       gradientUnits="userSpaceOnUse">
      <stop
         offset="0"
         stop-color="gray"
         stop-opacity="0.25"
         id="stop2" />
      <stop
         offset="0.54"
         stop-color="gray"
         stop-opacity="0.12"
         id="stop4" />
      <stop
         offset="1"
         stop-color="gray"
         stop-opacity="0.1"
         id="stop6" />
    </linearGradient>
    <linearGradient
       id="f123eb9f-f47a-40a3-adfc-57afba59094e"
       x1="567.66"
       y1="564.9"
       x2="567.66"
       y2="200"
       xlink:href="#9ef7ef10-53c7-4b47-a18d-df8c769a82a9" />
  </defs>
  <title
     id="title12">fishing</title>
  <path
     d="M364.47,166.32s215.24-68.53,299.83-18.2c58.18,34.61,189.28,24.66,265.49,15.06a271.53,271.53,0,0,1,125,13.58c38.57,13.74,79.12,30.33,77.42,38.82C1129,231.64,364.47,222,364.47,222Z"
     transform="translate(-67.69 -50.53)"
     fill="#448ef6"
     opacity="0.4"
     id="path16" />
  <path
     d="M95.69,254.13a72.91,72.91,0,0,1,56-70.88c69.73-16.73,186.67-37,243.87-3,84.6,50.33,323.39,6.42,323.39,6.42s147.77,45,144.56,61-767.79,6.42-767.79,6.42Z"
     transform="translate(-67.69 -50.53)"
     fill="#448ef6"
     id="path34" />
  <path
     d="M686.42,197.1c1.84-1.71,3.57-3.73,4.1-6.19s-.52-5.41-2.87-6.31c-2.63-1-5.45.82-7.58,2.66s-4.58,3.95-7.37,3.56a11.23,11.23,0,0,0,3.47-10.51,4.39,4.39,0,0,0-1-2.13c-1.46-1.56-4.11-.89-5.86.34-5.57,3.92-7.12,11.48-7.15,18.29-.56-2.46-.09-5-.1-7.53s-.7-5.31-2.83-6.66a8.52,8.52,0,0,0-4.31-1c-2.5-.09-5.29.16-7,2-2.12,2.27-1.57,6.09.27,8.6s4.66,4.07,7.25,5.8a16.07,16.07,0,0,1,5.18,4.94,4.89,4.89,0,0,1,.38.88h15.69A43.73,43.73,0,0,0,686.42,197.1Z"
     transform="translate(-67.69 -50.53)"
     fill="#448ef6"
     id="path36" />
  <path
     d="M341.62,162.83c1.84-1.71,3.57-3.73,4.1-6.19s-.52-5.41-2.87-6.31c-2.63-1-5.45.82-7.58,2.66s-4.58,3.95-7.37,3.56A11.23,11.23,0,0,0,331.37,146a4.39,4.39,0,0,0-1-2.13c-1.46-1.56-4.11-.89-5.86.34-5.57,3.92-7.12,11.48-7.15,18.29-.56-2.46-.09-5-.1-7.53s-.7-5.31-2.83-6.66a8.52,8.52,0,0,0-4.31-1c-2.5-.09-5.29.16-7,2-2.12,2.27-1.57,6.09.27,8.6s4.66,4.07,7.25,5.8a16.07,16.07,0,0,1,5.18,4.94,4.89,4.89,0,0,1,.38.88h15.69A43.73,43.73,0,0,0,341.62,162.83Z"
     transform="translate(-67.69 -50.53)"
     fill="#448ef6"
     id="path38" />
  <path
     d="M853.47,236.72c1.84-1.71,3.57-3.73,4.1-6.19s-.52-5.41-2.87-6.31c-2.63-1-5.45.82-7.58,2.66s-4.58,3.95-7.37,3.56a11.23,11.23,0,0,0,3.47-10.51,4.39,4.39,0,0,0-1-2.13c-1.46-1.56-4.11-.89-5.86.34-5.57,3.92-7.12,11.48-7.15,18.29-.56-2.46-.09-5-.1-7.53s-.7-5.31-2.83-6.66a8.52,8.52,0,0,0-4.31-1c-2.5-.09-5.29.16-7,2-2.12,2.27-1.57,6.09.27,8.6s4.66,4.07,7.25,5.8a16.07,16.07,0,0,1,5.18,4.94,4.89,4.89,0,0,1,.38.88h15.69A43.73,43.73,0,0,0,853.47,236.72Z"
     transform="translate(-67.69 -50.53)"
     fill="#448ef6"
     id="path40" />
  <path
     d="M226.57,109H219.2a5.16,5.16,0,0,0,0-10.32H159.52a5.16,5.16,0,1,0,0,10.32h7.37a5.16,5.16,0,0,0,0,10.32H156.57a5.16,5.16,0,0,0,0,10.32h59.68a5.16,5.16,0,0,0,0-10.32h10.32a5.16,5.16,0,1,0,0-10.32Z"
     transform="translate(-67.69 -50.53)"
     fill="#448ef6"
     opacity="0.1"
     id="path104" />
  <path
     d="M634.55,60.84h-7.37a5.16,5.16,0,0,0,0-10.32H567.5a5.16,5.16,0,1,0,0,10.32h7.37a5.16,5.16,0,1,0,0,10.32H564.56a5.16,5.16,0,1,0,0,10.32h59.68a5.16,5.16,0,0,0,0-10.32h10.32a5.16,5.16,0,1,0,0-10.32Z"
     transform="translate(-67.69 -50.53)"
     fill="#448ef6"
     opacity="0.1"
     id="path106" />
  <path
     d="M848.72,140.08h-7.37a5.16,5.16,0,1,0,0-10.32H781.67a5.16,5.16,0,1,0,0,10.32H789a5.16,5.16,0,0,0,0,10.32H778.72a5.16,5.16,0,1,0,0,10.32h59.68a5.16,5.16,0,1,0,0-10.32h10.32a5.16,5.16,0,0,0,0-10.32Z"
     transform="translate(-67.69 -50.53)"
     fill="#448ef6"
     opacity="0.1"
     id="path108" />
</svg>
