<?xml version="1.0" encoding="UTF-8" standalone="no"?>
<svg
   xmlns:dc="http://purl.org/dc/elements/1.1/"
   xmlns:cc="http://creativecommons.org/ns#"
   xmlns:rdf="http://www.w3.org/1999/02/22-rdf-syntax-ns#"
   xmlns:svg="http://www.w3.org/2000/svg"
   xmlns="http://www.w3.org/2000/svg"
   xmlns:xlink="http://www.w3.org/1999/xlink"
   xmlns:sodipodi="http://sodipodi.sourceforge.net/DTD/sodipodi-0.dtd"
   xmlns:inkscape="http://www.inkscape.org/namespaces/inkscape"
   id="83910068-75cf-4c80-8346-d10a076ef2cd"
   data-name="Layer 1"
   width="1064.62"
   height="798.95"
   viewBox="0 0 1064.62 798.95"
   version="1.1"
   sodipodi:docname="Clouds.svg"
   inkscape:version="0.92.5 (0.92.5+68)">
  <metadata
     id="metadata113">
    <rdf:RDF>
      <cc:Work
         rdf:about="">
        <dc:format>image/svg+xml</dc:format>
        <dc:type
           rdf:resource="http://purl.org/dc/dcmitype/StillImage" />
        <dc:title>fishing</dc:title>
      </cc:Work>
    </rdf:RDF>
  </metadata>
  <sodipodi:namedview
     pagecolor="#ffffff"
     bordercolor="#666666"
     borderopacity="1"
     objecttolerance="10"
     gridtolerance="10"
     guidetolerance="10"
     inkscape:pageopacity="0"
     inkscape:pageshadow="2"
     inkscape:window-width="3840"
     inkscape:window-height="2062"
     id="namedview111"
     showgrid="false"
     inkscape:zoom="2.2692283"
     inkscape:cx="293.90296"
     inkscape:cy="540.49211"
     inkscape:window-x="0"
     inkscape:window-y="0"
     inkscape:window-maximized="1"
     inkscape:current-layer="83910068-75cf-4c80-8346-d10a076ef2cd" />
  <defs
     id="defs10">
    <linearGradient
       id="9ef7ef10-53c7-4b47-a18d-df8c769a82a9"
       x1="552.67"
       y1="633.88"
       x2="552.67"
       y2="359.93"
       gradientUnits="userSpaceOnUse">
      <stop
         offset="0"
         stop-color="gray"
         stop-opacity="0.25"
         id="stop2" />
      <stop
         offset="0.54"
         stop-color="gray"
         stop-opacity="0.12"
         id="stop4" />
      <stop
         offset="1"
         stop-color="gray"
         stop-opacity="0.1"
         id="stop6" />
    </linearGradient>
    <linearGradient
       id="f123eb9f-f47a-40a3-adfc-57afba59094e"
       x1="567.66"
       y1="564.9"
       x2="567.66"
       y2="200"
       xlink:href="#9ef7ef10-53c7-4b47-a18d-df8c769a82a9" />
  </defs>
  <title
     id="title12">fishing</title>
  <path
     d="m 795.79167,115.79 c 0,0 -215.24,-68.53 -299.83,-18.2 -58.18,34.61 -189.28,24.66 -265.49,15.06 a 271.53,271.53 0 0 0 -125,13.58 c -38.570002,13.74 -79.120002,30.33 -77.420002,38.82 3.21,16.06 767.740002,6.42 767.740002,6.42 z"
     id="path16"
     inkscape:connector-curvature="0"
     style="opacity:0.4;fill:#448ef6" />
  <path
     d="m 1064.5717,203.6 a 72.91,72.91 0 0 0 -56,-70.88 c -69.73003,-16.73 -186.67003,-37 -243.87003,-3 -84.6,50.33 -323.39,6.42 -323.39,6.42 0,0 -147.77,45 -144.56,61 3.21,16 767.79003,6.42 767.79003,6.42 z"
     id="path34"
     inkscape:connector-curvature="0"
     style="fill:#ffb380" />
  <path
     d="m 473.84167,146.57 c -1.84,-1.71 -3.57,-3.73 -4.1,-6.19 -0.53,-2.46 0.52,-5.41 2.87,-6.31 2.63,-1 5.45,0.82 7.58,2.66 2.13,1.84 4.58,3.95 7.37,3.56 a 11.23,11.23 0 0 1 -3.47,-10.51 4.39,4.39 0 0 1 1,-2.13 c 1.46,-1.56 4.11,-0.89 5.86,0.34 5.57,3.92 7.12,11.48 7.15,18.29 0.56,-2.46 0.09,-5 0.1,-7.53 0.01,-2.53 0.7,-5.31 2.83,-6.66 a 8.52,8.52 0 0 1 4.31,-1 c 2.5,-0.09 5.29,0.16 7,2 2.12,2.27 1.57,6.09 -0.27,8.6 -1.84,2.51 -4.66,4.07 -7.25,5.8 a 16.07,16.07 0 0 0 -5.18,4.94 4.89,4.89 0 0 0 -0.38,0.88 h -15.69 a 43.73,43.73 0 0 1 -9.73,-6.74 z"
     id="path36"
     inkscape:connector-curvature="0"
     style="fill:#448ef6" />
  <path
     d="m 818.64167,112.3 c -1.84,-1.71 -3.57,-3.73 -4.1,-6.19 -0.53,-2.46 0.52,-5.41 2.87,-6.31 2.63,-1 5.45,0.82 7.58,2.66 2.13,1.84 4.58,3.95 7.37,3.56 a 11.23,11.23 0 0 1 -3.47,-10.55 4.39,4.39 0 0 1 1,-2.13 c 1.46,-1.56 4.11,-0.89 5.86,0.34 5.57,3.92 7.12,11.48 7.15,18.29 0.56,-2.46 0.09,-5 0.1,-7.53 0.01,-2.53 0.7,-5.31 2.83,-6.66 a 8.52,8.52 0 0 1 4.31,-1 c 2.5,-0.09 5.29,0.16 7,2 2.12,2.27 1.57,6.09 -0.27,8.6 -1.84,2.51 -4.66,4.07 -7.25,5.8 a 16.07,16.07 0 0 0 -5.18,4.94 4.89,4.89 0 0 0 -0.38,0.88 h -15.69 a 43.73,43.73 0 0 1 -9.73,-6.7 z"
     id="path38"
     inkscape:connector-curvature="0"
     style="fill:#448ef6" />
  <path
     d="m 306.79167,186.19 c -1.84,-1.71 -3.57,-3.73 -4.1,-6.19 -0.53,-2.46 0.52,-5.41 2.87,-6.31 2.63,-1 5.45,0.82 7.58,2.66 2.13,1.84 4.58,3.95 7.37,3.56 a 11.23,11.23 0 0 1 -3.47,-10.51 4.39,4.39 0 0 1 1,-2.13 c 1.46,-1.56 4.11,-0.89 5.86,0.34 5.57,3.92 7.12,11.48 7.15,18.29 0.56,-2.46 0.09,-5 0.1,-7.53 0.01,-2.53 0.7,-5.31 2.83,-6.66 a 8.52,8.52 0 0 1 4.31,-1 c 2.5,-0.09 5.29,0.16 7,2 2.12,2.27 1.57,6.09 -0.27,8.6 -1.84,2.51 -4.66,4.07 -7.25,5.8 a 16.07,16.07 0 0 0 -5.18,4.94 4.89,4.89 0 0 0 -0.38,0.88 h -15.69 a 43.73,43.73 0 0 1 -9.73,-6.74 z"
     id="path40"
     inkscape:connector-curvature="0"
     style="fill:#448ef6" />
  <path
     d="m 933.69167,58.47 h 7.37 a 5.16,5.16 0 0 1 0,-10.32 h 59.68003 a 5.16,5.16 0 1 1 0,10.32 h -7.37003 a 5.16,5.16 0 0 1 0,10.32 h 10.32003 a 5.16,5.16 0 0 1 0,10.32 h -59.68003 a 5.16,5.16 0 0 1 0,-10.32 h -10.32 a 5.16,5.16 0 1 1 0,-10.32 z"
     id="path104"
     inkscape:connector-curvature="0"
     style="opacity:0.1;fill:#448ef6" />
  <path
     d="m 525.71167,10.31 h 7.37 a 5.16,5.16 0 0 1 0,-10.32 h 59.68 a 5.16,5.16 0 1 1 0,10.32 h -7.37 a 5.16,5.16 0 1 1 0,10.32 h 10.31 a 5.16,5.16 0 1 1 0,10.32 h -59.68 a 5.16,5.16 0 0 1 0,-10.32 h -10.32 a 5.16,5.16 0 1 1 0,-10.32 z"
     id="path106"
     inkscape:connector-curvature="0"
     style="opacity:0.1;fill:#448ef6" />
  <path
     d="m 311.54167,89.55 h 7.37 a 5.16,5.16 0 1 1 0,-10.32 h 59.68 a 5.16,5.16 0 1 1 0,10.32 h -7.33 a 5.16,5.16 0 0 1 0,10.32 h 10.28 a 5.16,5.16 0 1 1 0,10.32 h -59.68 a 5.16,5.16 0 1 1 0,-10.32 h -10.32 a 5.16,5.16 0 0 1 0,-10.32 z"
     id="path108"
     inkscape:connector-curvature="0"
     style="opacity:0.1;fill:#448ef6" />
</svg>
