<?xml version="1.0" encoding="UTF-8" standalone="no"?>
<svg
   xmlns:dc="http://purl.org/dc/elements/1.1/"
   xmlns:cc="http://creativecommons.org/ns#"
   xmlns:rdf="http://www.w3.org/1999/02/22-rdf-syntax-ns#"
   xmlns:svg="http://www.w3.org/2000/svg"
   xmlns="http://www.w3.org/2000/svg"
   xmlns:xlink="http://www.w3.org/1999/xlink"
   xmlns:sodipodi="http://sodipodi.sourceforge.net/DTD/sodipodi-0.dtd"
   xmlns:inkscape="http://www.inkscape.org/namespaces/inkscape"
   id="b1ff9bb2-7f4f-4418-907c-98d09956747d"
   data-name="Layer 1"
   width="1060"
   height="664.07"
   viewBox="0 0 1060 664.07"
   version="1.1"
   sodipodi:docname="Creation.svg"
   inkscape:version="0.92.5 (0.92.5+68)">
  <metadata
     id="metadata235">
    <rdf:RDF>
      <cc:Work
         rdf:about="">
        <dc:format>image/svg+xml</dc:format>
        <dc:type
           rdf:resource="http://purl.org/dc/dcmitype/StillImage" />
      </cc:Work>
    </rdf:RDF>
  </metadata>
  <sodipodi:namedview
     pagecolor="#ffffff"
     bordercolor="#666666"
     borderopacity="1"
     objecttolerance="10"
     gridtolerance="10"
     guidetolerance="10"
     inkscape:pageopacity="0"
     inkscape:pageshadow="2"
     inkscape:window-width="3840"
     inkscape:window-height="2062"
     id="namedview233"
     showgrid="false"
     inkscape:zoom="2.7301338"
     inkscape:cx="430.92061"
     inkscape:cy="214.82463"
     inkscape:window-x="0"
     inkscape:window-y="0"
     inkscape:window-maximized="1"
     inkscape:current-layer="b1ff9bb2-7f4f-4418-907c-98d09956747d" />
  <defs
     id="defs10">
    <linearGradient
       id="fad104b9-db35-42fc-bc00-2b8a23207366"
       x1="543.54"
       y1="713.89"
       x2="543.54"
       y2="413.48"
       gradientTransform="matrix(-1, 0, 0, 1, 1022.18, 0)"
       gradientUnits="userSpaceOnUse">
      <stop
         offset="0"
         stop-color="gray"
         stop-opacity="0.25"
         id="stop2" />
      <stop
         offset="0.54"
         stop-color="gray"
         stop-opacity="0.12"
         id="stop4" />
      <stop
         offset="1"
         stop-color="gray"
         stop-opacity="0.1"
         id="stop6" />
    </linearGradient>
    <linearGradient
       id="f2f9dedb-0f43-435f-9543-735f3db0009a"
       x1="527.53"
       y1="653.3"
       x2="615"
       y2="653.3"
       gradientTransform="matrix(-1, 0, 0, 1, 1224.27, 0)"
       xlink:href="#fad104b9-db35-42fc-bc00-2b8a23207366" />
  </defs>
  <title
     id="title12">circles</title>
  <ellipse
     cx="811.5"
     cy="568.07"
     rx="119.5"
     ry="24"
     fill="none"
     stroke="#444053"
     stroke-miterlimit="10"
     id="ellipse14"
     style="stroke:#ffffff;stroke-opacity:1" />
  <path
     d="M430.54,495.11a27.37,27.37,0,0,0,1.19,2.61l0,.11s5.66,20.91,8.31,25.3c.77,1.27,1.64,2.65,2.5,4a8.89,8.89,0,0,0,0,3c.8,4.66,1.77,11.07,1.33,12.48s.53,4.92-1,6.14-3.1,3.34,1.59,6.15c0,0,.88,2.37.09,2.9-.09.06,0,.19.22.36-1.29,3.82-3.18,10-2,10.44.65.25,2.41-.67,4.34-1.91.05.25.09.52.14.79a38.15,38.15,0,0,0,1.42,6.07c.86,1.91,1.72,5.13,1.26,6.19s1.26,3.42.86,4.35,1.33,3.95,1.33,3.95,1.72,5.86,1.65,7.84,1.86,14.75,1.86,14.75-2,6.59-1,8.5,1.65,8.5,0,10.94-3.72,7.83-3.05,9.28-.93,19.37,3.11,26.75a82.26,82.26,0,0,1,1.13,8.3c0,2,3.18,7.31,3.18,7.31s-1.92,8,2.79,9.35a4.43,4.43,0,0,0,1,.19,4.49,4.49,0,0,1-.34,2.58,10.2,10.2,0,0,0-1.68,3.72h0a1,1,0,0,0,.09.75c.53.59,2,8.5,2,8.5s2.12,8.89,13.79,6.72c0,0,7.89-.46,7.23-3.23a18.16,18.16,0,0,0-.86-2.68,17.33,17.33,0,0,1-.74-1.73c-.13-.66-1.79-2.51-1.92-3.76s-1.19-3.69-1-4.48-1.79-6.45-1.93-7.71a13.07,13.07,0,0,0-.75-2.56l.42-.2s1.06-5.93.14-8.1-4.58-5-4.58-5,.53-14.56-.13-16.54.33-9.48.33-9.48,2.25-10.61,2.12-13a11,11,0,0,1,.66-4.35s1.4-15.61,2.32-17.59,2-21.34,2-21.34l.62,1.78a68.37,68.37,0,0,0,3.1,7.83c.51.8,2,3.36,3.28,5.5l1.89,3.2s.86,3.1.26,5,6.17,12.18,6.17,12.18a6.09,6.09,0,0,0-.66,2.77c.19,1-2.06,4.15-2.06,4.15s-.86,2.83-.33,3.82-.86,6.85-.86,6.85-2.26,12.91-2.79,14.43.27,11.92.27,11.92-4.16,10.65-2.23,14.19c.08,1.31.09,3.31-.42,4.12-.69,1.08-.49,5.07-.42,6.17,0,.19,0,.29,0,.29s-2.26,3,.59,4.22,12.54,2.1,12.54,2.1,9.21,2.64,13.65,3.36,13.73.46,14.39-2.24a7.21,7.21,0,0,0,.24-2.58,3.21,3.21,0,0,0-1.83-2.56A75.24,75.24,0,0,0,517,695.5s-4.38-1-4.78-2.9-6.63-7.18-6.63-7.18-.07-.37-.2-.87l.2,0-.3-.3c-.31-1-.81-2.32-1.42-2.07h0a1.5,1.5,0,0,1,.68-2.06c2.39-1.31,3.85-5.46,3.18-9.94s-.79-3.69.6-6.26a12.3,12.3,0,0,0,1-6.19L513,644.05a20.7,20.7,0,0,0,1.06-5.2,9.72,9.72,0,0,1,1.06-4s1.66-9.49,3.12-11.66-1-9.82-1-9.82-2.25-11.85-2.12-17.26-5.84-24.17-5.84-24.17a6.28,6.28,0,0,1-.92-4.09c.12-1.12-.58-2.94-1.37-4.57l-.25-.51a4.43,4.43,0,0,1,1.09-1c1.64-1,2.41-3.63,2.42-5.48L487.64,503c0-.16,10.47-21.55,10.44-21.71-.62-3.51-6.54-12.82-6.54-12.82l0,0a.75.75,0,0,0-.25-.29c-1.33-.61-5.83-3.16-5.83-3.16-3.53-4.36-6.84-5.26-9-5.23a6.12,6.12,0,0,0-2,.31,4.41,4.41,0,0,0-.67.27l-.1.87a17.84,17.84,0,0,1,.47-6c.05-.17.1-.35.14-.52.33,0,.66,0,1,0a16.12,16.12,0,0,0,16.17-16.07,16.32,16.32,0,0,0-.62-4.45l-.08-.23.5-.22c2-.74,4.51.52,6.13-.82a4.65,4.65,0,0,0,1.22-2.11,12.67,12.67,0,0,0,.89-3.35c0-.2,0-.4,0-.6a1.09,1.09,0,0,0,0-.18,1.7,1.7,0,0,0,0-.22c0-.09,0-.18,0-.27s0,0,0,0a3.89,3.89,0,0,0-.86-2c-1.06-1.24-2.83-1.54-4.17-2.45a10.09,10.09,0,0,1-2.67-3.13,11.64,11.64,0,0,0-2.59-3.19,3.81,3.81,0,0,0-3.89-.61,4.39,4.39,0,0,1-1.28.6,2.67,2.67,0,0,1-1.41-.38c-4.6-2.15-10-1.77-15-1.13a19.51,19.51,0,0,0-5.91,1.42,7,7,0,0,0-4,4.33c-.41,1.55-.1,3.23-.59,4.76-.34,1-1,1.92-1.42,2.93a6,6,0,0,0-.38,1.65v0s0,.11,0,.16c-.17,2.27.72,4.66,1.15,7,.59,3.19.29,6.66,1.66,9.68a5.79,5.79,0,0,0,.52,1.06c-.48,1-1,2.06-1.5,3.05-.74-.21-3-.71-3.08,1.27a10.78,10.78,0,0,1-1.1,4.64,3.29,3.29,0,0,1-.33.23.64.64,0,0,0-.37.65l0,0-.26.2a.64.64,0,0,0-.32.11c-.14-.24-.6-.26-2.06,1.48a28.1,28.1,0,0,1-6.63,5.1s-9.82,6.85-10.35,10S428.86,490.54,430.54,495.11Zm43.12-33.42s0-.07,0-.11l.12.06Zm26.68,224a2.14,2.14,0,0,1-.84.17Z"
     transform="translate(-70 -118.22)"
     fill="url(#fad104b9-db35-42fc-bc00-2b8a23207366)"
     id="path16" />
  <path
     d="M477.73,713.55c-11.53,2.16-13.63-6.68-13.63-6.68s-1.44-7.86-2-8.45a1,1,0,0,1-.09-.75h0a10.24,10.24,0,0,1,1.66-3.7c.72-.85.13-4.39.13-4.39l13.36-3.4a20.05,20.05,0,0,1,1.31,3.93c.14,1.24,2.1,6.88,1.9,7.66s.86,3.21,1,4.46,1.77,3.08,1.9,3.73a14,14,0,0,0,.72,1.73,16.83,16.83,0,0,1,.85,2.66C485.52,713.09,477.73,713.55,477.73,713.55Z"
     transform="translate(-70 -118.22)"
     fill="#444053"
     id="path18" />
  <path
     d="M477.73,713.55c-11.53,2.16-13.63-6.68-13.63-6.68s-1.44-7.86-2-8.45a1,1,0,0,1-.09-.75l2.77,8s2.3,4.79,10.81,4.06c4.85-.4,7.23-1.3,8.39-2a16.83,16.83,0,0,1,.85,2.66C485.52,713.09,477.73,713.55,477.73,713.55Z"
     transform="translate(-70 -118.22)"
     opacity="0.1"
     id="path20" />
  <path
     d="M468.75,701.1s2.89.07,3.08-2.29Z"
     transform="translate(-70 -118.22)"
     opacity="0.1"
     id="path22" />
  <path
     d="M518.87,623.67c-1.44,2.16-3.08,11.59-3.08,11.59a9.92,9.92,0,0,0-1,4,20.26,20.26,0,0,1-1,5.18L510,658a12.27,12.27,0,0,1-1,6.15c-1.37,2.56-1.24,1.77-.59,6.23s-.78,8.58-3.14,9.89,1.05,4.39,1.05,4.39-15.07,4.06-18.22,1.57,1.64-14.8,1.64-14.8-.78-10.35-.26-11.86,2.75-14.35,2.75-14.35,1.38-5.83.85-6.81.33-3.8.33-3.8,2.23-3.15,2-4.13a6.16,6.16,0,0,1,.66-2.75s-6.68-10.22-6.1-12.12-.26-5-.26-5-.84-1.45-1.86-3.18c-1.24-2.13-2.74-4.67-3.25-5.47a69.83,69.83,0,0,1-3.05-7.78l-.62-1.78s-1,19.26-2,21.22-2.29,17.5-2.29,17.5a10.88,10.88,0,0,0-.66,4.32c.13,2.42-2.1,13-2.1,13s-1,7.47-.32,9.44.13,16.44.13,16.44,3.6,2.82,4.52,5-.13,8.06-.13,8.06-10.48,5.24-15.14,3.86-2.75-9.3-2.75-9.3-3.14-5.24-3.14-7.27a82.19,82.19,0,0,0-1.12-8.26c-4-7.34-2.42-25.15-3.07-26.6s1.37-6.81,3-9.23,1-9,0-10.88,1-8.45,1-8.45-1.9-12.71-1.83-14.67-1.64-7.8-1.64-7.8-1.7-3-1.31-3.93-1.31-3.28-.85-4.32-.4-4.26-1.25-6.16a39.49,39.49,0,0,1-1.4-6c-.4-2.26-.69-4.25-.69-4.25l10.81-8.71,27-7.08L495.94,545l9.89,15.59s1,1.63,1.93,3.51c.78,1.62,1.47,3.43,1.35,4.55a6.27,6.27,0,0,0,.92,4.06s5.89,18.67,5.76,24,2.1,17.17,2.1,17.17S520.31,621.51,518.87,623.67Z"
     transform="translate(-70 -118.22)"
     fill="#3f3d56"
     id="path24" />
  <path
     d="M458.21,633.43s11.53-4.91,14.93-1.44S458.21,633.43,458.21,633.43Z"
     transform="translate(-70 -118.22)"
     opacity="0.1"
     id="path26" />
  <path
     d="M464.69,635.39S453,642,457,643.06,464.69,635.39,464.69,635.39Z"
     transform="translate(-70 -118.22)"
     opacity="0.1"
     id="path28" />
  <path
     d="M499.54,629.7s-5,.32-3.08,1.31S499.54,629.7,499.54,629.7Z"
     transform="translate(-70 -118.22)"
     opacity="0.1"
     id="path30" />
  <path
     d="M505.77,631.2c-.07.33-14.48,5-11.66,7.08S505.77,631.2,505.77,631.2Z"
     transform="translate(-70 -118.22)"
     opacity="0.1"
     id="path32" />
  <path
     d="M459.91,671.29c2.16-.32,14.22-5.89,9.5-1.89A9.4,9.4,0,0,1,459.91,671.29Z"
     transform="translate(-70 -118.22)"
     opacity="0.1"
     id="path34" />
  <path
     d="M465.87,675.68s1.05,4.07,5.05,3.54S465.87,675.68,465.87,675.68Z"
     transform="translate(-70 -118.22)"
     opacity="0.1"
     id="path36" />
  <path
     d="M462.53,683.94c.72-.2,9.3-4.13,9.5-2.29s-8.19,5-8.84,4.06A3.52,3.52,0,0,1,462.53,683.94Z"
     transform="translate(-70 -118.22)"
     opacity="0.1"
     id="path38" />
  <path
     d="M490.31,679.22c1-.06,10.87-3.21,12.84-.39Z"
     transform="translate(-70 -118.22)"
     opacity="0.1"
     id="path40" />
  <path
     d="M499.22,681.06s1.7-1.51,3.4-.72S499.22,681.06,499.22,681.06Z"
     transform="translate(-70 -118.22)"
     opacity="0.1"
     id="path42" />
  <path
     d="M477.47,697.3a2.92,2.92,0,0,0,2.22,2.3Z"
     transform="translate(-70 -118.22)"
     opacity="0.1"
     id="path44" />
  <path
     d="M527.45,703.46c-.65,2.69-9.83,2.95-14.21,2.23s-13.5-3.34-13.5-3.34-9.56-.92-12.38-2.1-.59-4.19-.59-4.19,0-.1,0-.28c-.07-1.1-.26-5.07.41-6.14.79-1.25.33-5.31.33-5.31s13.56,2.62,13.82,1.38,2.36-3,3.34-3.41,1.71,3.28,1.71,3.28,6.16,5.24,6.55,7.14,4.71,2.88,4.71,2.88a73.26,73.26,0,0,1,8.26,2.75,3.18,3.18,0,0,1,1.81,2.54A7.14,7.14,0,0,1,527.45,703.46Z"
     transform="translate(-70 -118.22)"
     fill="#444053"
     id="path46" />
  <path
     d="M527.45,703.46c-.65,2.69-9.83,2.95-14.21,2.23s-13.5-3.34-13.5-3.34-9.56-.92-12.38-2.1-.59-4.19-.59-4.19,0-.1,0-.28l13.71,3s6.75,2.88,11.07,2.88c3.78,0,12.23,1.55,16.16-.8A7.14,7.14,0,0,1,527.45,703.46Z"
     transform="translate(-70 -118.22)"
     opacity="0.1"
     id="path48" />
  <path
     d="M508.91,693.11s-.65,4.32-3.27,5.77Z"
     transform="translate(-70 -118.22)"
     opacity="0.1"
     id="path50" />
  <path
     d="M550.9,533.87C547,535.35,538,535.51,534,535.51c-1.22,0-2,0-2,0l-2.57-5.24,2.57-4.37s2.36-.65,5.5-1.22c4.63-.83,11-1.48,14,.39C556.54,528.2,556,532,550.9,533.87Z"
     transform="translate(-70 -118.22)"
     fill="#a1616a"
     id="path52" />
  <path
     d="M491.33,471.16l1.14-1.31s5.85,9.26,6.46,12.75,1.4,7.51,1.4,7.51,1.48,4.54,2.45,6.55a22.15,22.15,0,0,1,1.92,4.81c.08.87-.35,2.79,1.48,4s2.27,4.54,2.27,4.54,6.64,6.46,10.14,6.64,13.53,1.92,13.19,3.66,4.19,2.8,6,3.24S526,529.24,534,536c0,0-5.07,1-5.59,2.27s-5.85-.7-5.85-.7-1.14-2.71-5.07-2.88-5.94-1.92-5.94-2.18-3.93-2.45-6.11-3.06-5.07-.87-5.16-1.49-13.1-56.77-13.1-56.77Z"
     transform="translate(-70 -118.22)"
     fill="#448ef6"
     id="path54" />
  <path
     d="M491.33,471.38l1.14-1.31s5.85,9.26,6.46,12.76,1.4,7.51,1.4,7.51,1.48,4.54,2.45,6.55a22.32,22.32,0,0,1,1.92,4.8c.08.88-.35,2.8,1.48,4s2.27,4.54,2.27,4.54,6.64,6.47,10.14,6.64,13.53,1.92,13.19,3.67,4.19,2.8,6,3.23S526,529.47,534,536.2c0,0-5.07,1-5.59,2.27s-5.85-.7-5.85-.7-1.14-2.71-5.07-2.88-5.94-1.92-5.94-2.19-3.93-2.44-6.11-3.05-5.07-.88-5.16-1.49-13.1-56.78-13.1-56.78Z"
     transform="translate(-70 -118.22)"
     opacity="0.05"
     id="path56" />
  <path
     d="M625,708.78c66,0,119.5,10.75,119.5,24s-53.5,24-119.5,24-119.5-10.74-119.5-24"
     transform="translate(-70 -118.22)"
     fill="none"
     stroke="#444053"
     stroke-miterlimit="10"
     id="path58"
     style="stroke:#ffffff;stroke-opacity:1" />
  <rect
     x="572.82"
     y="211.88"
     width="17.09"
     height="127.07"
     transform="translate(-15.71 -211.62) rotate(9.63)"
     fill="#444053"
     id="rect60" />
  <polygon
     points="550.34 598.75 554.08 625.45 557.28 597.69 550.34 598.75"
     fill="#d0d2d5"
     id="polygon62" />
  <polygon
     points="430.2 583.8 430.2 600.36 433.94 614.77 436.61 614.77 439.82 599.29 441.42 580.6 430.2 583.8"
     fill="#3f3d56"
     id="polygon64" />
  <path
     d="M492.59,637.42l8,1.6s-9.07,25.09-2.67,30.43H487.79S484.05,650.23,492.59,637.42Z"
     transform="translate(-70 -118.22)"
     fill="#d0d2d5"
     id="path66" />
  <path
     d="M492.59,637.42l8,1.6s-9.07,25.09-2.67,30.43H487.79S484.05,650.23,492.59,637.42Z"
     transform="translate(-70 -118.22)"
     opacity="0.1"
     id="path68" />
  <path
     d="M546.12,335.75,520.49,498.06s-37.9,173-23.49,207.17h18.16l54.46-332.1Z"
     transform="translate(-70 -118.22)"
     fill="#d0d2d5"
     id="path70" />
  <path
     d="M611.12,315.59l19.65,163.14s14.31,207.83-1.36,241.44H613.93L586.27,352.08Z"
     transform="translate(-70 -118.22)"
     fill="#d0d2d5"
     id="path72" />
  <path
     d="M543.73,276.45a21,21,0,0,1,20.71-15c15.81.4,40.25,3.28,53,16.34,19.76,20.29-13.35,88.63-13.35,88.63s-31,57.13-59.26-15.48C544.79,351,533.07,312.12,543.73,276.45Z"
     transform="translate(-70 -118.22)"
     fill="#444053"
     id="path74" />
  <path
     d="M543.73,276.45a21,21,0,0,1,20.71-15c15.81.4,40.25,3.28,53,16.34,19.76,20.29-13.35,88.63-13.35,88.63s-31,57.13-59.26-15.48C544.79,351,533.07,312.12,543.73,276.45Z"
     transform="translate(-70 -118.22)"
     opacity="0.1"
     id="path76" />
  <path
     d="M554.6,290.33a15,15,0,0,1,14.75-10.66c11.25.29,28.65,2.34,37.7,11.64,14.07,14.44-9.5,63.1-9.5,63.1s-22,40.67-42.2-11C555.35,343.38,547,315.73,554.6,290.33Z"
     transform="translate(-70 -118.22)"
     fill="#444053"
     id="path78" />
  <path
     d="M479,471.81c-.41-.17-28.91-11.94-25-14.28,2.33-1.39,5.2-7.27,7.16-11.88,1.37-3.21,2.3-5.81,2.3-5.81s22.88-4.06,14.69,10a26.09,26.09,0,0,0-2.89,6.91C472.9,466.25,478.77,471.63,479,471.81Z"
     transform="translate(-70 -118.22)"
     fill="#a1616a"
     id="path108" />
  <path
     d="M478.12,449.8a26.09,26.09,0,0,0-2.89,6.91,16,16,0,0,1-13.5-9.5,14,14,0,0,1-.6-1.56c1.37-3.21,2.3-5.81,2.3-5.81S486.31,435.78,478.12,449.8Z"
     transform="translate(-70 -118.22)"
     opacity="0.1"
     id="path110" />
  <path
     d="M492.34,440.24a16,16,0,0,1-30.61,6.45,15.79,15.79,0,0,1-1.36-6.45,16,16,0,0,1,31.35-4.43A16.18,16.18,0,0,1,492.34,440.24Z"
     transform="translate(-70 -118.22)"
     fill="#a1616a"
     id="path112" />
  <path
     d="M507.76,564.09a9.73,9.73,0,0,0-2.32,4.42s-7.86,5.37-7.34,2S494,553.31,494,553.31l.52,18.74s-25.15-1.18-27-3S455,563.66,455,563.66s-3.29,2.64-6.32,4.64c-.4-2.26-.69-4.25-.69-4.25l10.81-8.71,27-7.08L495.94,545l9.89,15.59S506.85,562.21,507.76,564.09Z"
     transform="translate(-70 -118.22)"
     opacity="0.1"
     id="path114" />
  <path
     d="M508.58,562.61c-2.09,1.31-2.88,4.85-2.88,4.85s-7.86,5.37-7.34,2-4.06-17.16-4.06-17.16l.53,18.74s-25.16-1.18-27-3-12.58-5.37-12.58-5.37-9.3,7.47-11,6.81,3-13.36,3-13.36l4.84-74.42s-1.31-22.14.66-22.93a2.6,2.6,0,0,0,.82-.52c1.3-1.16,1.69-3.52,1.8-5.51.13-2.35,3.27-1.18,3.27-1.18l-1.83,2.36,16.24,9.87.14.09a19.49,19.49,0,0,1,2-.89c1.44-.55,3.35-1.07,4.6-.55a4.51,4.51,0,0,1,1.72,1.55,19.17,19.17,0,0,1,2.21,4.48l5.9,9.95s3,13.24,3,13.76.92,12.58,2,13.89,2.1,7.86,1.71,9.83.65,9.3.65,9.3c4.33,3.54,6.55,15.59,6.55,15.59s6.82,13.5,7.34,15.07S510.68,561.3,508.58,562.61Z"
     transform="translate(-70 -118.22)"
     fill="#444053"
     id="path116" />
  <path
     d="M473.07,464.26c-1.6,2.36-6.2,5.67-6.2,5.67l-13.28-11.21c1.3-1.16,1.69-3.53,1.8-5.51.13-2.36,3.27-1.18,3.27-1.18l-.38.49a2.12,2.12,0,0,0,.57,3.1Z"
     transform="translate(-70 -118.22)"
     opacity="0.1"
     id="path118" />
  <path
     d="M473.07,463.73c-1.6,2.36-6.2,5.68-6.2,5.68l-13.28-11.22c1.3-1.16,1.69-3.52,1.8-5.51.13-2.35,3.27-1.18,3.27-1.18l-.38.49a2.12,2.12,0,0,0,.57,3.1Z"
     transform="translate(-70 -118.22)"
     fill="#444053"
     id="path120" />
  <path
     d="M479.21,465.5c-1.72,2.05-4.15,4.38-4,3.21s-1.45-3.74-2.44-4.89a7.3,7.3,0,0,1,4.76.13A4.51,4.51,0,0,1,479.21,465.5Z"
     transform="translate(-70 -118.22)"
     opacity="0.1"
     id="path122" />
  <path
     d="M479.47,464.71c-1.72,2.06-4.15,4.38-4,3.22s-1.29-3.06-2.29-4.21c1.44-.55,3.35-1.07,4.6-.55A4.4,4.4,0,0,1,479.47,464.71Z"
     transform="translate(-70 -118.22)"
     fill="#444053"
     id="path124" />
  <path
     d="M453.6,458.84s.17-1.57-2.1,1.14A27.69,27.69,0,0,1,445,465s-9.69,6.82-10.22,10-3.67,16.77-2,21.31,14.33,26.3,14.33,26.3-3.32,3.93-2.54,8.56,1.75,11,1.31,12.4.53,4.89-1,6.11-3.05,3.32,1.58,6.12c0,0,.87,2.36.08,2.88s11.62,5.94,16.51,3.06,13.72-25.94,13.89-31.1-2.71-22.18-4.28-26.2-6.29-19.66-8.3-23.15S453.6,458.84,453.6,458.84Z"
     transform="translate(-70 -118.22)"
     opacity="0.1"
     id="path126" />
  <path
     d="M453.07,458.84s.18-1.57-2.09,1.14a27.69,27.69,0,0,1-6.55,5.06s-9.7,6.82-10.22,10-3.67,16.77-2,21.31,14.32,26.3,14.32,26.3-3.32,3.93-2.53,8.56,1.75,11,1.31,12.4.52,4.89-1,6.11-3.06,3.32,1.57,6.12c0,0,.88,2.36.09,2.88s11.62,5.94,16.51,3.06,13.71-25.94,13.89-31.1-2.71-22.18-4.28-26.2-6.29-19.66-8.3-23.15S453.07,458.84,453.07,458.84Z"
     transform="translate(-70 -118.22)"
     fill="#448ef6"
     id="path128" />
  <path
     d="M449.58,473.69s7.51,8.3,7.25,13.8C456.83,487.49,456.92,478.58,449.58,473.69Z"
     transform="translate(-70 -118.22)"
     opacity="0.1"
     id="path130" />
  <path
     d="M474.93,461.81s4.87-3,11,4.63c0,0,4.45,2.53,5.76,3.15s2.8,16.85,2.8,16.85,2.88,7,2.09,11,2.28,17.82,2.28,17.82,5.06,24.81,4.89,25.5-5.16-7.77-5.07-12-4.19-17.3-4.8-18.08-4.81-23.24-4.81-23.24-3.4-9.52-5.59-12.66-4.89-9.09-6-10.14a11.55,11.55,0,0,0-2.7-1.74Z"
     transform="translate(-70 -118.22)"
     opacity="0.1"
     id="path132" />
  <path
     d="M474.87,461.81s5.46-3,11.57,4.63c0,0,4.46,2.53,5.77,3.15S495,486.44,495,486.44s2.88,7,2.1,11,2.27,17.82,2.27,17.82,5.07,24.81,4.89,25.5-5.15-7.77-5.07-12-4.19-17.3-4.8-18.08-4.8-23.24-4.8-23.24S486.18,478,484,474.83s-4.9-9.09-6-10.14a10.93,10.93,0,0,0-3.23-1.74Z"
     transform="translate(-70 -118.22)"
     fill="#448ef6"
     id="path134" />
  <path
     d="M498.85,516.4s10.39-6.81,15.41-3.45,13.24,8.13,5.16,11.58-19.26,2.79-19.26,2.79Z"
     transform="translate(-70 -118.22)"
     fill="#a1616a"
     id="path136" />
  <path
     d="M491.62,582.13c-1.55,3.33-2.83,20-3.7,25.32-1.24-2.13-2.74-4.67-3.25-5.47a69.83,69.83,0,0,1-3.05-7.78c1-2.4,3.71-9.28,3.71-11.8,0-3.08,5-6.95,5-6.95A5.78,5.78,0,0,1,491.62,582.13Z"
     transform="translate(-70 -118.22)"
     opacity="0.1"
     id="path138" />
  <path
     d="M491.72,435.81a4.74,4.74,0,0,1-.78.32c-1.23.33-2.43-.5-3.52-1.16s-2.6-1.15-3.55-.29c-1.23,1.12-.34,3.51-1.61,4.59-.8.69-2.07.45-3,1s-1.16,1.8-1.39,2.86-.67,2.28-1.72,2.59-2-.37-3-.34c-.21,0-.46,0-.6-.12a.64.64,0,0,1-.1-.47,10.24,10.24,0,0,0-.34-3.79,3.63,3.63,0,0,0-2.66-2.5c-1.84-.28-3.39,1.33-4.47,2.85a46.4,46.4,0,0,0-3.09,5c-.05.09-.1.21-.16.35a15.79,15.79,0,0,1-1.36-6.45,16,16,0,0,1,31.35-4.43Z"
     transform="translate(-70 -118.22)"
     opacity="0.1"
     id="path140" />
  <path
     d="M465,441.1c1.08-1.52,2.63-3.13,4.47-2.85a3.64,3.64,0,0,1,2.66,2.49,10.07,10.07,0,0,1,.33,3.79.7.7,0,0,0,.11.48c.14.16.39.13.6.12,1,0,2.05.63,3,.34s1.5-1.53,1.72-2.59.47-2.28,1.39-2.86,2.17-.33,3-1c1.27-1.08.38-3.48,1.61-4.59.95-.86,2.46-.37,3.55.29s2.29,1.49,3.52,1.16a10.39,10.39,0,0,0,1.19-.51c1.95-.74,4.47.52,6.06-.81a4.71,4.71,0,0,0,1.21-2.1,12.9,12.9,0,0,0,.88-3.33,4.48,4.48,0,0,0-.88-3.26c-1-1.22-2.8-1.53-4.13-2.43a10.14,10.14,0,0,1-2.63-3.11,11.49,11.49,0,0,0-2.56-3.18,3.76,3.76,0,0,0-3.85-.6,4,4,0,0,1-1.26.59,2.52,2.52,0,0,1-1.39-.38c-4.54-2.14-9.83-1.76-14.81-1.12a19.06,19.06,0,0,0-5.84,1.41,7,7,0,0,0-3.94,4.31c-.4,1.54-.09,3.21-.58,4.73-.33,1-1,1.91-1.4,2.92-1.06,2.76.21,5.8.75,8.71.59,3.18.29,6.62,1.64,9.63.27.59.56,1.62,1.23,1.23.49-.29,1-2,1.25-2.49A48.14,48.14,0,0,1,465,441.1Z"
     transform="translate(-70 -118.22)"
     fill="#3f3d56"
     id="path142" />
  <path
     d="M436.22,492.3,433.86,499s5.59,20.79,8.21,25.16,6.46,10,6.46,10a24,24,0,0,0,14,1.74c7.51-1.48,29.43-5.41,29.43-5.41a2.92,2.92,0,0,0,2.8-1.05c1-1.4,5.94-2.1,5.94-2.1s5.76-8.38-1.31-11.88c0,0-.87,1.93-4.63.61s-4.89,1.05-4.89,1.05-6.12,1.23-9.52.79-11.88-.61-12.76-1.31a1.11,1.11,0,0,0-1.57.09,9.53,9.53,0,0,1-2.79-1.58c-.7-.78-1.66.88-1.66.88s-1.23-.7-.88-1.57-1.13-4.2-1.13-4.2a8.46,8.46,0,0,1-.26-3.93c.43-1.75-2.19-8-2.19-8a11.34,11.34,0,0,1,.35-3.15c.44-1.57-3.32-4.72-3.32-4.72s-3.67-17.81-11.44-12S436.22,492.3,436.22,492.3Z"
     transform="translate(-70 -118.22)"
     opacity="0.1"
     id="path144" />
  <path
     d="M435.69,492.3,433.33,499s5.59,20.79,8.21,25.16,6.47,10,6.47,10a23.94,23.94,0,0,0,14,1.74c7.52-1.48,29.44-5.41,29.44-5.41a2.92,2.92,0,0,0,2.8-1.05c1-1.4,5.94-2.1,5.94-2.1s5.76-8.38-1.31-11.88c0,0-.88,1.93-4.63.61s-4.9,1.05-4.9,1.05-6.11,1.23-9.52.79-11.88-.61-12.75-1.31a1.11,1.11,0,0,0-1.57.09,9.54,9.54,0,0,1-2.8-1.58c-.7-.78-1.66.88-1.66.88s-1.22-.7-.87-1.57-1.14-4.2-1.14-4.2a8.61,8.61,0,0,1-.26-3.93c.44-1.75-2.18-8-2.18-8a10.91,10.91,0,0,1,.35-3.15c.43-1.57-3.32-4.72-3.32-4.72s-3.67-17.81-11.44-12S435.69,492.3,435.69,492.3Z"
     transform="translate(-70 -118.22)"
     fill="#448ef6"
     id="path146" />
  <path
     d="M457.27,512.56s-8.56,1.75-5.68,3.23S457.27,512.56,457.27,512.56Z"
     transform="translate(-70 -118.22)"
     opacity="0.1"
     id="path148" />
  <g
     opacity="0.1"
     id="g154">
    <path
       d="M472.11,439.26a3.6,3.6,0,0,0-2.66-2.49c-1.84-.28-3.39,1.33-4.47,2.84a48.28,48.28,0,0,0-3.1,5c-.28.52-.76,2.2-1.25,2.49-.67.39-1-.65-1.23-1.24-1.35-3-1-6.45-1.64-9.63a55.71,55.71,0,0,1-1.13-5.61c-.2,2.28.7,4.68,1.13,7,.59,3.18.29,6.62,1.64,9.63.27.59.56,1.62,1.23,1.23.49-.29,1-2,1.25-2.48a47.24,47.24,0,0,1,3.1-5c1.08-1.52,2.63-3.13,4.47-2.84a3.6,3.6,0,0,1,2.66,2.49,6.84,6.84,0,0,1,.35,2A9,9,0,0,0,472.11,439.26Z"
       transform="translate(-70 -118.22)"
       id="path150" />
    <path
       d="M499.4,431a4.62,4.62,0,0,1-1.21,2.09c-1.59,1.33-4.11.08-6.06.82-.4.15-.77.39-1.19.51-1.23.32-2.43-.5-3.52-1.16s-2.6-1.16-3.55-.3c-1.23,1.12-.34,3.51-1.61,4.59-.8.69-2.07.45-3,1s-1.16,1.79-1.39,2.85-.67,2.28-1.72,2.59-2-.37-3-.33c-.21,0-.46,0-.6-.12a.28.28,0,0,1-.07-.13c0,.35,0,.7,0,1.05a.69.69,0,0,0,.11.47c.14.16.39.13.6.13,1,0,2.05.62,3,.33s1.5-1.52,1.72-2.59.47-2.27,1.39-2.85,2.17-.33,3-1c1.27-1.08.38-3.47,1.61-4.59.95-.86,2.46-.37,3.55.29s2.29,1.49,3.52,1.16a12.45,12.45,0,0,0,1.19-.5c1.95-.74,4.47.51,6.06-.82a4.67,4.67,0,0,0,1.21-2.09,13.08,13.08,0,0,0,.88-3.34,5.09,5.09,0,0,0,0-1.17A14.81,14.81,0,0,1,499.4,431Z"
       transform="translate(-70 -118.22)"
       id="path152" />
  </g>
  <ellipse
     cx="255"
     cy="565.57"
     rx="40.92"
     ry="7.87"
     fill="#448ef6"
     id="ellipse156" />
  <ellipse
     cx="254.32"
     cy="562.23"
     rx="4.76"
     ry="6.24"
     fill="#3f3d56"
     id="ellipse158" />
  <ellipse
     cx="254.32"
     cy="554.61"
     rx="4.76"
     ry="6.24"
     fill="#3f3d56"
     id="ellipse160" />
  <ellipse
     cx="254.32"
     cy="546.99"
     rx="4.76"
     ry="6.24"
     fill="#3f3d56"
     id="ellipse162" />
  <ellipse
     cx="254.32"
     cy="539.36"
     rx="4.76"
     ry="6.24"
     fill="#3f3d56"
     id="ellipse164" />
  <ellipse
     cx="254.32"
     cy="531.74"
     rx="4.76"
     ry="6.24"
     fill="#3f3d56"
     id="ellipse166" />
  <ellipse
     cx="254.32"
     cy="524.12"
     rx="4.76"
     ry="6.24"
     fill="#3f3d56"
     id="ellipse168" />
  <ellipse
     cx="254.32"
     cy="516.5"
     rx="4.76"
     ry="6.24"
     fill="#3f3d56"
     id="ellipse170" />
  <path
     d="M342.15,582.56a22.27,22.27,0,0,0,1.77-2.62l-12.51-2.05,13.53.1a22.87,22.87,0,0,0,.44-18.08l-18.16,9.42L344,557a22.82,22.82,0,1,0-37.69,25.54,22.52,22.52,0,0,0-2.6,4.16l16.24,8.44-17.32-5.82a22.78,22.78,0,0,0,3.68,21.43,22.82,22.82,0,1,0,35.87,0,22.82,22.82,0,0,0,0-28.21Z"
     transform="translate(-70 -118.22)"
     fill="#448ef6"
     id="path172" />
  <path
     d="M301.39,596.66a22.71,22.71,0,0,0,4.89,14.11,22.82,22.82,0,1,0,35.87,0C345.21,606.89,301.39,594.1,301.39,596.66Z"
     transform="translate(-70 -118.22)"
     opacity="0.1"
     id="path174" />
  <ellipse
     cx="940"
     cy="638.57"
     rx="40.92"
     ry="7.87"
     fill="#448ef6"
     id="ellipse176" />
  <ellipse
     cx="939.32"
     cy="635.23"
     rx="4.76"
     ry="6.24"
     fill="#3f3d56"
     id="ellipse178" />
  <ellipse
     cx="939.32"
     cy="627.61"
     rx="4.76"
     ry="6.24"
     fill="#3f3d56"
     id="ellipse180" />
  <ellipse
     cx="939.32"
     cy="619.99"
     rx="4.76"
     ry="6.24"
     fill="#3f3d56"
     id="ellipse182" />
  <ellipse
     cx="939.32"
     cy="612.36"
     rx="4.76"
     ry="6.24"
     fill="#3f3d56"
     id="ellipse184" />
  <ellipse
     cx="939.32"
     cy="604.74"
     rx="4.76"
     ry="6.24"
     fill="#3f3d56"
     id="ellipse186" />
  <ellipse
     cx="939.32"
     cy="597.12"
     rx="4.76"
     ry="6.24"
     fill="#3f3d56"
     id="ellipse188" />
  <ellipse
     cx="939.32"
     cy="589.5"
     rx="4.76"
     ry="6.24"
     fill="#3f3d56"
     id="ellipse190" />
  <path
     d="M1027.15,655.56a22.27,22.27,0,0,0,1.77-2.62l-12.51-2.05,13.53.1a22.87,22.87,0,0,0,.44-18.08l-18.16,9.42L1029,630a22.82,22.82,0,1,0-37.69,25.54,22.52,22.52,0,0,0-2.6,4.16l16.24,8.44-17.32-5.82a22.78,22.78,0,0,0,3.68,21.43,22.82,22.82,0,1,0,35.87,0,22.82,22.82,0,0,0,0-28.21Z"
     transform="translate(-70 -118.22)"
     fill="#448ef6"
     id="path192" />
  <path
     d="M986.39,669.66a22.71,22.71,0,0,0,4.89,14.11,22.82,22.82,0,1,0,35.87,0C1030.21,679.89,986.39,667.1,986.39,669.66Z"
     transform="translate(-70 -118.22)"
     opacity="0.1"
     id="path194" />
  <circle
     cx="404.43"
     cy="93.69"
     r="15.27"
     fill="#448ef6"
     opacity="0.1"
     id="circle196" />
  <circle
     cx="459.06"
     cy="25.6"
     r="25.6"
     fill="#448ef6"
     opacity="0.1"
     id="circle198" />
  <circle
     cx="425.18"
     cy="149.82"
     r="25.6"
     fill="#448ef6"
     opacity="0.1"
     id="circle200" />
  <circle
     cx="963.93"
     cy="277.69"
     r="15.27"
     fill="#448ef6"
     opacity="0.1"
     id="circle202" />
  <circle
     cx="909.29"
     cy="209.6"
     r="25.6"
     fill="#448ef6"
     opacity="0.1"
     id="circle204" />
  <circle
     cx="943.18"
     cy="333.82"
     r="25.6"
     fill="#448ef6"
     opacity="0.1"
     id="circle206" />
  <circle
     cx="100.77"
     cy="305.35"
     r="8.65"
     fill="#448ef6"
     opacity="0.1"
     id="circle208" />
  <circle
     cx="137.85"
     cy="272.61"
     r="14.5"
     fill="#448ef6"
     opacity="0.1"
     id="circle210" />
  <circle
     cx="68.45"
     cy="295.1"
     r="14.5"
     fill="#448ef6"
     opacity="0.1"
     id="circle212" />
  <circle
     cx="741.77"
     cy="253.35"
     r="8.65"
     fill="#448ef6"
     opacity="0.1"
     id="circle214" />
  <circle
     cx="778.85"
     cy="220.61"
     r="14.5"
     fill="#448ef6"
     opacity="0.1"
     id="circle216" />
  <circle
     cx="709.45"
     cy="243.1"
     r="14.5"
     fill="#448ef6"
     opacity="0.1"
     id="circle218" />
  <circle
     cx="216.58"
     cy="142.32"
     r="36.25"
     fill="#448ef6"
     opacity="0.1"
     id="circle220" />
  <circle
     cx="423.58"
     cy="262.32"
     r="20.92"
     fill="#448ef6"
     opacity="0.1"
     id="circle222" />
  <circle
     cx="630.58"
     cy="398.32"
     r="20.92"
     fill="#448ef6"
     opacity="0.1"
     id="circle224" />
  <ellipse
     cx="255"
     cy="568.57"
     rx="119.5"
     ry="24"
     fill="none"
     stroke="#444053"
     stroke-miterlimit="10"
     id="ellipse226"
     style="stroke:#ffffff;stroke-opacity:1" />
  <ellipse
     cx="940"
     cy="639.57"
     rx="119.5"
     ry="24"
     fill="none"
     stroke="#444053"
     stroke-miterlimit="10"
     id="ellipse228"
     style="stroke:#ffffff;stroke-opacity:1" />
  <ellipse
     cx="120"
     cy="639.57"
     rx="119.5"
     ry="24"
     fill="none"
     stroke="#444053"
     stroke-miterlimit="10"
     id="ellipse230"
     style="stroke:#fdfcff;stroke-opacity:1" />
</svg>
