<?xml version="1.0" encoding="UTF-8" standalone="no"?>
<svg
   xmlns:dc="http://purl.org/dc/elements/1.1/"
   xmlns:cc="http://creativecommons.org/ns#"
   xmlns:rdf="http://www.w3.org/1999/02/22-rdf-syntax-ns#"
   xmlns:svg="http://www.w3.org/2000/svg"
   xmlns="http://www.w3.org/2000/svg"
   xmlns:sodipodi="http://sodipodi.sourceforge.net/DTD/sodipodi-0.dtd"
   xmlns:inkscape="http://www.inkscape.org/namespaces/inkscape"
   id="a93a6f04-9f48-4989-8d4f-bcc04991c500"
   data-name="Layer 1"
   width="974"
   height="655.69414"
   viewBox="0 0 974 655.69414"
   version="1.1"
   sodipodi:docname="undraw_nature_fun_n9lv.svg"
   inkscape:version="0.92.5 (0.92.5+68)">
  <metadata
     id="metadata195">
    <rdf:RDF>
      <cc:Work
         rdf:about="">
        <dc:format>image/svg+xml</dc:format>
        <dc:type
           rdf:resource="http://purl.org/dc/dcmitype/StillImage" />
      </cc:Work>
    </rdf:RDF>
  </metadata>
  <defs
     id="defs193" />
  <sodipodi:namedview
     pagecolor="#ffffff"
     bordercolor="#666666"
     borderopacity="1"
     objecttolerance="10"
     gridtolerance="10"
     guidetolerance="10"
     inkscape:pageopacity="0"
     inkscape:pageshadow="2"
     inkscape:window-width="3840"
     inkscape:window-height="2062"
     id="namedview191"
     showgrid="false"
     inkscape:zoom="1.3825043"
     inkscape:cx="-75.25025"
     inkscape:cy="251.0806"
     inkscape:window-x="0"
     inkscape:window-y="0"
     inkscape:window-maximized="1"
     inkscape:current-layer="a93a6f04-9f48-4989-8d4f-bcc04991c500" />
  <title
     id="title2">nature_fun</title>
  <circle
     cx="391.76004"
     cy="157.83499"
     r="68.57277"
     fill="#448ef6"
     id="circle4" />
  <polyline
     points="307.638 442.615 227.09 363.249 207.115 343.566 147.495 284.822 73.589 363.718 0 442.285"
     fill="#f2f2f2"
     id="polyline6"
     style="fill:#ffffff" />
  <polygon
     points="704.31 443.094 159.71 443.094 227.09 370.054 351.58 224.034 359.97 214.194 472.58 82.104 550.5 205.514 552.54 208.744 651.67 365.724 704.31 443.094"
     fill="#f2f2f2"
     id="polygon8"
     style="fill:#ffffff" />
  <polyline
     points="974 442.615 839.483 283.895 773.539 206.09 709.804 286.003 651.67 358.918 585.18 442.285"
     fill="#f2f2f2"
     id="polyline10"
     style="fill:#ffffff" />
  <polygon
     points="207.115 343.566 171.622 367.363 129.717 350.855 73.589 363.718 147.495 284.822 207.115 343.566"
     opacity="0.1"
     id="polygon12"
     style="fill:#ffa163;fill-opacity:1;opacity:0.815" />
  <polygon
     points="550.5 205.514 538.61 226.404 511.95 198.474 482.74 226.404 466.23 194.664 439.56 226.404 431.94 206.094 414.17 226.404 382.42 206.094 359.97 214.194 472.58 82.104 550.5 205.514"
     opacity="0.1"
     id="polygon14"
     style="fill:#ff6600;opacity:0.613" />
  <polygon
     points="839.483 283.895 806.555 324.187 779.888 292.441 739.253 325.457 709.804 286.003 773.539 206.09 839.483 283.895"
     opacity="0.1"
     id="polygon16"
     style="fill:#ffa163;fill-opacity:1;opacity:0.94758065" />
  <path
     d="M952.88867,566.30606l-1.77734-.918c23.082-44.624,10.73926-102.5752-3.67871-143.332a439.29211,439.29211,0,0,0-37.27783-78.67481l1.69042-1.06836a441.53607,441.53607,0,0,1,37.47217,79.0752C963.86816,462.518,976.29785,521.04727,952.88867,566.30606Z"
     transform="translate(-113 -122.15293)"
     fill="#2f2e41"
     id="path18" />
  <rect
     x="928.40984"
     y="377.34739"
     width="72.18033"
     height="1.99936"
     transform="matrix(0.17975, -0.98371, 0.98371, 0.17975, 305.95091, 1136.97956)"
     fill="#2f2e41"
     id="rect20" />
  <rect
     x="915.49964"
     y="390.67137"
     width="2.00072"
     height="98.35141"
     transform="translate(-167.07949 620.04023) rotate(-42.93968)"
     fill="#2f2e41"
     id="rect22" />
  <rect
     x="958.99569"
     y="505.34692"
     width="58.00862"
     height="2.00031"
     transform="translate(-114.17148 888.24885) rotate(-54.13715)"
     fill="#2f2e41"
     id="rect24" />
  <circle
     cx="863"
     cy="191.69414"
     r="10"
     fill="#448ef6"
     id="circle26" />
  <circle
     cx="754"
     cy="268.69414"
     r="10"
     fill="#3f3d56"
     id="circle28" />
  <circle
     cx="798"
     cy="278.69414"
     r="10"
     fill="#3f3d56"
     id="circle30" />
  <circle
     cx="778"
     cy="317.69414"
     r="10"
     fill="#448ef6"
     id="circle32" />
  <circle
     cx="903"
     cy="342.69414"
     r="10"
     fill="#3f3d56"
     id="circle34" />
  <circle
     cx="870"
     cy="353.69414"
     r="10"
     fill="#3f3d56"
     id="circle36" />
  <circle
     cx="893"
     cy="385.69414"
     r="10"
     fill="#3f3d56"
     id="circle38" />
  <circle
     cx="788"
     cy="203.69414"
     r="10"
     fill="#3f3d56"
     id="circle40" />
  <path
     d="M703.88867,564.30606l-1.77734-.918c23.082-44.624,10.73926-102.5752-3.67871-143.332a439.29211,439.29211,0,0,0-37.27783-78.67481l1.69042-1.06836a441.53607,441.53607,0,0,1,37.47217,79.0752C714.86816,460.518,727.29785,519.04727,703.88867,564.30606Z"
     transform="translate(-113 -122.15293)"
     fill="#2f2e41"
     id="path42" />
  <rect
     x="679.40984"
     y="375.34739"
     width="72.18033"
     height="1.99936"
     transform="matrix(0.17975, -0.98371, 0.98371, 0.17975, 103.67484, 890.39445)"
     fill="#2f2e41"
     id="rect44" />
  <rect
     x="666.49964"
     y="388.67137"
     width="2.00072"
     height="98.35141"
     transform="translate(-232.43128 449.87859) rotate(-42.93968)"
     fill="#2f2e41"
     id="rect46" />
  <rect
     x="709.99569"
     y="503.34692"
     width="58.00862"
     height="2.00031"
     transform="translate(-215.67473 685.62555) rotate(-54.13715)"
     fill="#2f2e41"
     id="rect48" />
  <circle
     cx="614"
     cy="189.69414"
     r="10"
     fill="#3f3d56"
     id="circle50" />
  <circle
     cx="505"
     cy="266.69414"
     r="10"
     fill="#3f3d56"
     id="circle52" />
  <circle
     cx="549"
     cy="276.69414"
     r="10"
     fill="#3f3d56"
     id="circle54" />
  <circle
     cx="529"
     cy="315.69414"
     r="10"
     fill="#3f3d56"
     id="circle56" />
  <circle
     cx="654"
     cy="340.69414"
     r="10"
     fill="#448ef6"
     id="circle58" />
  <circle
     cx="621"
     cy="351.69414"
     r="10"
     fill="#3f3d56"
     id="circle60" />
  <circle
     cx="644"
     cy="383.69414"
     r="10"
     fill="#3f3d56"
     id="circle62" />
  <circle
     cx="539"
     cy="201.69414"
     r="10"
     fill="#3f3d56"
     id="circle64" />
  <path
     d="M286.11133,564.30606l1.77734-.918c-23.082-44.624-10.73926-102.5752,3.67871-143.332a439.29211,439.29211,0,0,1,37.27783-78.67481l-1.69042-1.06836a441.53607,441.53607,0,0,0-37.47217,79.0752C275.13184,460.518,262.70215,519.04727,286.11133,564.30606Z"
     transform="translate(-113 -122.15293)"
     fill="#2f2e41"
     id="path66" />
  <rect
     x="273.50032"
     y="340.25691"
     width="1.99936"
     height="72.18033"
     transform="translate(-176.17579 -66.68344) rotate(-10.35491)"
     fill="#2f2e41"
     id="rect68" />
  <rect
     x="273.32429"
     y="436.84671"
     width="98.35141"
     height="2.00072"
     transform="translate(-330.73131 253.51343) rotate(-47.06032)"
     fill="#2f2e41"
     id="rect70" />
  <rect
     x="249.99985"
     y="475.34276"
     width="2.00031"
     height="58.00862"
     transform="translate(-360.88606 120.50794) rotate(-35.86285)"
     fill="#2f2e41"
     id="rect72" />
  <circle
     cx="150"
     cy="189.69414"
     r="10"
     fill="#3f3d56"
     id="circle74" />
  <circle
     cx="259"
     cy="266.69414"
     r="10"
     fill="#3f3d56"
     id="circle76" />
  <circle
     cx="215"
     cy="276.69414"
     r="10"
     fill="#3f3d56"
     id="circle78" />
  <circle
     cx="235"
     cy="315.69414"
     r="10"
     fill="#3f3d56"
     id="circle80" />
  <circle
     cx="110"
     cy="340.69414"
     r="10"
     fill="#3f3d56"
     id="circle82" />
  <circle
     cx="143"
     cy="351.69414"
     r="10"
     fill="#3f3d56"
     id="circle84" />
  <circle
     cx="120"
     cy="383.69414"
     r="10"
     fill="#448ef6"
     id="circle86" />
  <circle
     cx="225"
     cy="201.69414"
     r="10"
     fill="#3f3d56"
     id="circle88" />
  <rect
     y="441.69414"
     width="974"
     height="2"
     fill="#2f2e41"
     id="rect90" />
  <path
     d="M337.593,563.41012s-16.12066,8.68035-16.74069,16.12066-9.9204,26.04106-9.9204,26.04106-36.58149-10.54043-37.20152-11.16046-3.10013,11.16046-3.10013,11.16046l13.02054,1.86008,24.181,8.68035s5.58023,8.06033,14.88061-3.10013,32.86134-35.34144,32.86134-35.34144Z"
     transform="translate(-113 -122.15293)"
     fill="#2f2e41"
     id="path124" />
  <path
     d="M334.49288,593.79136s20.46084,19.84081,19.84081,24.181-9.9204,39.68161-9.9204,39.68161l7.4403,3.72016,4.9602-3.10013,9.92041-42.78175s3.73433-5.23978-3.40305-11.30024-12.09759-27.14132-12.09759-27.14132Z"
     transform="translate(-113 -122.15293)"
     fill="#2f2e41"
     id="path126" />
  <circle
     cx="279.46525"
     cy="421.72639"
     r="10.54043"
     fill="#a0616a"
     id="circle128" />
  <path
     d="M385.335,542.32926s-10.54043-4.9602-11.78048-3.72015,2.48011,16.12066,2.48011,16.12066,9.9204-5.58023,11.16045-5.58023S385.335,542.32926,385.335,542.32926Z"
     transform="translate(-113 -122.15293)"
     fill="#a0616a"
     id="path130" />
  <path
     d="M379.1347,549.14954s-3.10012-12.40051-4.34018-12.40051-13.02053,1.86008-20.46083,10.54043S338.83306,560.93,336.353,562.79009s-4.34018,3.72016,0,5.58023,9.30038,6.82028,11.16045,9.92041,14.26058-.62,14.26058-.62,5.58023-10.54043,7.44031-10.54043S380.99478,552.86969,379.1347,549.14954Z"
     transform="translate(-113 -122.15293)"
     fill="#448ef6"
     id="path132" />
  <path
     d="M360.53394,562.79009s-8.68035,11.78048-8.68035,20.46084,4.9602,22.94093,4.9602,22.94093,4.34018,21.08086,8.06033,13.64056-2.4801-17.36071-2.4801-17.36071l-2.4801-22.32091,4.9602-11.78048Z"
     transform="translate(-113 -122.15293)"
     fill="#a0616a"
     id="path134" />
  <path
     d="M275.68332,595.12661s-6.91312-5.0554-7.53315-3.19533-9.9204,22.94094-6.82027,24.181,12.4005-11.16046,13.02053-11.16046S273.9161,594.60179,275.68332,595.12661Z"
     transform="translate(-113 -122.15293)"
     fill="#2f2e41"
     id="path136" />
  <path
     d="M355.57374,654.55384s9.30038,4.9602,11.16046,4.9602,5.58022,2.4801,1.24,3.72015-23.561,3.10013-24.181,1.24,0-6.82028,0-6.82028S355.57374,656.41391,355.57374,654.55384Z"
     transform="translate(-113 -122.15293)"
     fill="#2f2e41"
     id="path138" />
  <path
     d="M404.69027,543.689a5.22235,5.22235,0,0,0,.29684-2.39062c-.05774-1.78113-.18092-3.72962-1.39189-5.037-.62043-.66983-1.4922-1.12243-1.92955-1.92388a12.051,12.051,0,0,1-.55931-1.729,4.82364,4.82364,0,0,0-3.42683-2.78763,14.25124,14.25124,0,0,0-4.57266-.16737,21.20619,21.20619,0,0,0-6.41938,1.13012,7.16945,7.16945,0,0,0-4.43049,4.49524,10.59086,10.59086,0,0,0-.25915,2.46788l-.09062,3.45226a2.23007,2.23007,0,0,0,2.55837.27537c.84057-.3734,1.55266-1.0008,2.4062-1.34351a2.11531,2.11531,0,0,1,2.51134.4552,7.5376,7.5376,0,0,1,.43732.94961c1.70177,3.38845,6.27423-.21783,8.64952-.16593C400.59523,541.41617,403.13288,547.02914,404.69027,543.689Z"
     transform="translate(-113 -122.15293)"
     fill="#2f2e41"
     id="path140" />
  <path
     d="M370.96781,666.37791c15.45158,0,17.94016-5.75642,18.0431-6.01376l-1.14863-.46744c-.02543.05813-2.67083,5.79094-19.24561,5.19816-16.08856-.57522-40.98221-.07932-44.3088-.00847-.93246-1.57853-5.114-7.98283-11.01755-6.8003l.2434,1.21583c5.67227-1.13833,9.8314,6.42974,9.87318,6.50663l.17983.33363.37965-.00787c.27307-.00606,27.46215-.61155,44.60549-.00061Q369.81888,666.37821,370.96781,666.37791Z"
     transform="translate(-113 -122.15293)"
     fill="#2f2e41"
     id="path142" />
  <rect
     x="368.59427"
     y="667.57437"
     width="4.9602"
     height="4.9602"
     rx="2.29788"
     transform="translate(629.14875 1217.95601) rotate(180)"
     fill="#2f2e41"
     id="rect144" />
  <rect
     x="325.81253"
     y="667.57437"
     width="4.9602"
     height="4.9602"
     rx="2.29788"
     transform="translate(543.58526 1217.95601) rotate(180)"
     fill="#2f2e41"
     id="rect146" />
  <path
     d="M377.27463,547.90949s-2.94747,14.92562-6.12392,17.69323-3.92342,5.44867-6.03,6.27822-9.54693-7.8508-9.54693-8.47082S377.27463,547.90949,377.27463,547.90949Z"
     transform="translate(-113 -122.15293)"
     fill="#448ef6"
     id="path148" />
  <rect
     x="171"
     y="552.69414"
     width="156"
     height="2"
     fill="#2f2e41"
     id="rect150" />
  <rect
     x="357"
     y="594.69414"
     width="156"
     height="2"
     fill="#2f2e41"
     id="rect152" />
  <rect
     x="576"
     y="653.69414"
     width="64"
     height="2"
     fill="#2f2e41"
     id="rect154" />
  <rect
     x="177"
     y="636.69414"
     width="64"
     height="2"
     fill="#2f2e41"
     id="rect156" />
  <rect
     x="532.41699"
     y="495.69414"
     width="275.16602"
     height="2"
     fill="#2f2e41"
     id="rect158" />
  <path
     d="M334.45218,202.53311a45.44061,45.44061,0,0,0-74.75053,16.1334l83.4586-3.86693A45.35538,45.35538,0,0,0,334.45218,202.53311Z"
     transform="translate(-113 -122.15293)"
     fill="#f2f2f2"
     id="path160"
     style="fill:#ffffff" />
  <path
     d="M514.45218,135.53311a45.44061,45.44061,0,0,0-74.75053,16.1334l83.4586-3.86693A45.35538,45.35538,0,0,0,514.45218,135.53311Z"
     transform="translate(-113 -122.15293)"
     fill="#f2f2f2"
     id="path162"
     style="fill:#ffffff" />
  <path
     d="M831.45218,302.53311a45.44061,45.44061,0,0,0-74.75053,16.1334l83.4586-3.86693A45.35538,45.35538,0,0,0,831.45218,302.53311Z"
     transform="translate(-113 -122.15293)"
     fill="#f2f2f2"
     id="path164"
     style="fill:#ffffff" />
  <rect
     x="679"
     y="622.69414"
     width="151"
     height="2"
     fill="#2f2e41"
     id="rect166" />
  <path
     d="M818.12308,705.87171a7.99435,7.99435,0,0,1-7.39693,7.97536H810.72c-.19689.01848-.39382.02464-.59691.02464a7.99977,7.99977,0,0,1-8-8,.824.824,0,0,1,.00616-.12308,7.99114,7.99114,0,0,1,7.10769-7.82772,8.36878,8.36878,0,0,1,.88615-.0492A7.99041,7.99041,0,0,1,818,704.4871v.00616A7.865,7.865,0,0,1,818.12308,705.87171Z"
     transform="translate(-113 -122.15293)"
     fill="#448ef6"
     id="path168" />
  <path
     d="M818.12308,705.87171a7.99435,7.99435,0,0,1-7.39693,7.97536H810.72a6.154,6.154,0,0,1,7.28-9.36v.00616A7.865,7.865,0,0,1,818.12308,705.87171Z"
     transform="translate(-113 -122.15293)"
     fill="#f2f2f2"
     id="path170" />
  <path
     d="M809.5077,699.71787a6.15385,6.15385,0,0,1-7.37846,6.03076,7.99114,7.99114,0,0,1,7.10769-7.82772A5.96385,5.96385,0,0,1,809.5077,699.71787Z"
     transform="translate(-113 -122.15293)"
     fill="#f2f2f2"
     id="path172" />
  <path
     d="M888,694.36528c0,4.97058-7.42689,4.285-9,9-5.50307,16.49422-9.051-2.45094-9-9a9,9,0,0,1,18.00006,0Z"
     transform="translate(-113 -122.15293)"
     fill="#2f2e41"
     id="path174" />
  <path
     d="M876.45687,719.33132s-.1071,11.33293-1.58323,12.071-9.8568,2.3213-8.38067,4.90453a5.93542,5.93542,0,0,0,7.7497,2.2142c2.58323-1.47613,8.8568-10.33293,8.8568-10.33293Z"
     transform="translate(-113 -122.15293)"
     fill="#3f3d56"
     id="path176" />
  <path
     d="M907.82469,729.29522s0,.10857.01084.30167a8.19454,8.19454,0,0,0,11.3234,6.987c1.07674-.42266,2.00992-.48723,1.84386.67523-.369,2.58323-.26194,6.05936,1.58323,6.05936s4.4284-4.4284,2.95227-9.22583a41.11216,41.11216,0,0,0-4.79744-9.59486Z"
     transform="translate(-113 -122.15293)"
     fill="#3f3d56"
     id="path178" />
  <path
     d="M876.45687,719.33132s-.1071,11.33293-1.58323,12.071-9.8568,2.3213-8.38067,4.90453a5.93542,5.93542,0,0,0,7.7497,2.2142c2.58323-1.47613,8.8568-10.33293,8.8568-10.33293Z"
     transform="translate(-113 -122.15293)"
     opacity="0.1"
     id="path180" />
  <path
     d="M907.82469,729.29522s0,.10857.01084.30167a8.19454,8.19454,0,0,0,11.3234,6.987c1.07674-.42266,2.00992-.48723,1.84386.67523-.369,2.58323-.26194,6.05936,1.58323,6.05936s4.4284-4.4284,2.95227-9.22583a41.11216,41.11216,0,0,0-4.79744-9.59486Z"
     transform="translate(-113 -122.15293)"
     opacity="0.1"
     id="path182" />
  <path
     d="M868.39488,696.06609a12.46086,12.46086,0,0,1,3.4126-4.45757,11.13538,11.13538,0,0,1,10.18489-2.16889c8.48776,2.2142,9.59486,8.48777,9.59486,8.48777v2.532a6.06554,6.06554,0,0,0,3.75136,5.68647C897.21726,706.88,928.15483,705.84517,930,704a20.5072,20.5072,0,0,0,3.288-4.9655v.0717a18.827,18.827,0,0,1-2.55075,9.62944,6.1791,6.1791,0,0,0-1.13958,3.58405c.369,2.58323,1.47613,9.59487-.73806,12.1781s-1.1071,4.4284,1.47613,4.79743,7.01163-.369,6.6426,4.05937.369,6.27356-1.47614,6.27356S932.84517,739.05937,931,735c0,0-1.40235-.90735-6.56881.56878-3.35821.95949-7.7703,1.86841-9.06113-.73882-2.85467-5.7659-21.2121-4.629-25.39185,1.1427a19.24882,19.24882,0,0,1-4.031,4.3366,10.1468,10.1468,0,0,1-2.38649,1.3947c-2.2142.7842-4.88969,1.061-6.73486-.96871C873.13557,736.67588,883,736,883,736s1.5756-3.75251.83753-6.33575c0,0-8.85679-1.84516-9.22583-13.28519,0,0-11.80906,0-13.65422-5.90453L859.11231,704.57l3.54993-2.13a14.60338,14.60338,0,0,0,5.71992-6.34669Z"
     transform="translate(-113 -122.15293)"
     fill="#3f3d56"
     id="path184" />
  <ellipse
     cx="746.27938"
     cy="582.70868"
     rx="1.72062"
     ry="2.2142"
     fill="#2f2e41"
     id="ellipse186" />
  <path
     d="M896,698c0,5.52285-8.25208,4.761-10,10-6.1145,18.32684-10.05664-2.72327-10-10a10,10,0,0,1,20,0Z"
     transform="translate(-113 -122.15293)"
     fill="#2f2e41"
     id="path188" />
</svg>
